<svg xmlns="http://www.w3.org/2000/svg" width="862" height="568" viewBox="0 0 862 568"><defs><style>.a{opacity:0.2;}.b{fill:#312e2a;}</style></defs><g transform="translate(-209 1613) rotate(-90)"><g class="a" transform="translate(-40 41.023)"><g transform="translate(1085.001 168)"><ellipse class="b" cx="2.5" cy="3" rx="2.5" ry="3" transform="translate(-0.001 -0.023)"/><ellipse class="b" cx="2.5" cy="3" rx="2.5" ry="3" transform="translate(26.999 -0.023)"/><circle class="b" cx="3" cy="3" r="3" transform="translate(52.999 -0.023)"/><ellipse class="b" cx="2.5" cy="3" rx="2.5" ry="3" transform="translate(79.999 -0.023)"/><circle class="b" cx="3" cy="3" r="3" transform="translate(105.999 -0.023)"/><ellipse class="b" cx="2.5" cy="3" rx="2.5" ry="3" transform="translate(132.999 -0.023)"/><ellipse class="b" cx="2.5" cy="3" rx="2.5" ry="3" transform="translate(159.999 -0.023)"/><circle class="b" cx="3" cy="3" r="3" transform="translate(185.999 -0.023)"/><ellipse class="b" cx="2.5" cy="3" rx="2.5" ry="3" transform="translate(212.999 -0.023)"/><circle class="b" cx="3" cy="3" r="3" transform="translate(238.999 -0.023)"/><ellipse class="b" cx="2.5" cy="3" rx="2.5" ry="3" transform="translate(265.999 -0.023)"/><circle class="b" cx="2.5" cy="2.5" r="2.5" transform="translate(-0.001 26.977)"/><circle class="b" cx="2.5" cy="2.5" r="2.5" transform="translate(26.999 26.977)"/><ellipse class="b" cx="3" cy="2.5" rx="3" ry="2.5" transform="translate(52.999 26.977)"/><circle class="b" cx="2.5" cy="2.5" r="2.5" transform="translate(79.999 26.977)"/><ellipse class="b" cx="3" cy="2.5" rx="3" ry="2.5" transform="translate(105.999 26.977)"/><circle class="b" cx="2.5" cy="2.5" r="2.5" transform="translate(132.999 26.977)"/><circle class="b" cx="2.5" cy="2.5" r="2.5" transform="translate(159.999 26.977)"/><ellipse class="b" cx="3" cy="2.5" rx="3" ry="2.5" transform="translate(185.999 26.977)"/><circle class="b" cx="2.5" cy="2.5" r="2.5" transform="translate(212.999 26.977)"/><ellipse class="b" cx="3" cy="2.5" rx="3" ry="2.5" transform="translate(238.999 26.977)"/><circle class="b" cx="2.5" cy="2.5" r="2.5" transform="translate(265.999 26.977)"/><ellipse class="b" cx="2.5" cy="3" rx="2.5" ry="3" transform="translate(-0.001 52.977)"/><ellipse class="b" cx="2.5" cy="3" rx="2.5" ry="3" transform="translate(26.999 52.977)"/><circle class="b" cx="3" cy="3" r="3" transform="translate(52.999 52.977)"/><ellipse class="b" cx="2.5" cy="3" rx="2.5" ry="3" transform="translate(79.999 52.977)"/><circle class="b" cx="3" cy="3" r="3" transform="translate(105.999 52.977)"/><ellipse class="b" cx="2.5" cy="3" rx="2.5" ry="3" transform="translate(132.999 52.977)"/><ellipse class="b" cx="2.5" cy="3" rx="2.5" ry="3" transform="translate(159.999 52.977)"/><circle class="b" cx="3" cy="3" r="3" transform="translate(185.999 52.977)"/><ellipse class="b" cx="2.5" cy="3" rx="2.5" ry="3" transform="translate(212.999 52.977)"/><circle class="b" cx="3" cy="3" r="3" transform="translate(238.999 52.977)"/><ellipse class="b" cx="2.5" cy="3" rx="2.5" ry="3" transform="translate(265.999 52.977)"/><circle class="b" cx="2.5" cy="2.5" r="2.5" transform="translate(-0.001 79.977)"/><circle class="b" cx="2.5" cy="2.5" r="2.5" transform="translate(26.999 79.977)"/><ellipse class="b" cx="3" cy="2.5" rx="3" ry="2.5" transform="translate(52.999 79.977)"/><circle class="b" cx="2.5" cy="2.5" r="2.5" transform="translate(79.999 79.977)"/><ellipse class="b" cx="3" cy="2.5" rx="3" ry="2.5" transform="translate(105.999 79.977)"/><circle class="b" cx="2.5" cy="2.5" r="2.5" transform="translate(132.999 79.977)"/><circle class="b" cx="2.5" cy="2.5" r="2.5" transform="translate(159.999 79.977)"/><ellipse class="b" cx="3" cy="2.5" rx="3" ry="2.5" transform="translate(185.999 79.977)"/><circle class="b" cx="2.5" cy="2.5" r="2.5" transform="translate(212.999 79.977)"/><ellipse class="b" cx="3" cy="2.5" rx="3" ry="2.5" transform="translate(238.999 79.977)"/><circle class="b" cx="2.5" cy="2.5" r="2.5" transform="translate(265.999 79.977)"/><ellipse class="b" cx="2.5" cy="3" rx="2.5" ry="3" transform="translate(-0.001 105.977)"/><ellipse class="b" cx="2.5" cy="3" rx="2.5" ry="3" transform="translate(26.999 105.977)"/><circle class="b" cx="3" cy="3" r="3" transform="translate(52.999 105.977)"/><ellipse class="b" cx="2.5" cy="3" rx="2.5" ry="3" transform="translate(79.999 105.977)"/><circle class="b" cx="3" cy="3" r="3" transform="translate(105.999 105.977)"/><ellipse class="b" cx="2.5" cy="3" rx="2.5" ry="3" transform="translate(132.999 105.977)"/><ellipse class="b" cx="2.5" cy="3" rx="2.5" ry="3" transform="translate(159.999 105.977)"/><circle class="b" cx="3" cy="3" r="3" transform="translate(185.999 105.977)"/><ellipse class="b" cx="2.5" cy="3" rx="2.5" ry="3" transform="translate(212.999 105.977)"/><circle class="b" cx="3" cy="3" r="3" transform="translate(238.999 105.977)"/><ellipse class="b" cx="2.5" cy="3" rx="2.5" ry="3" transform="translate(265.999 105.977)"/><circle class="b" cx="2.5" cy="2.5" r="2.5" transform="translate(-0.001 132.977)"/><circle class="b" cx="2.5" cy="2.5" r="2.5" transform="translate(26.999 132.977)"/><ellipse class="b" cx="3" cy="2.5" rx="3" ry="2.5" transform="translate(52.999 132.977)"/><circle class="b" cx="2.5" cy="2.5" r="2.5" transform="translate(79.999 132.977)"/><ellipse class="b" cx="3" cy="2.5" rx="3" ry="2.5" transform="translate(105.999 132.977)"/><circle class="b" cx="2.5" cy="2.5" r="2.5" transform="translate(132.999 132.977)"/><circle class="b" cx="2.5" cy="2.5" r="2.5" transform="translate(159.999 132.977)"/><ellipse class="b" cx="3" cy="2.5" rx="3" ry="2.5" transform="translate(185.999 132.977)"/><circle class="b" cx="2.5" cy="2.5" r="2.5" transform="translate(212.999 132.977)"/><ellipse class="b" cx="3" cy="2.5" rx="3" ry="2.5" transform="translate(238.999 132.977)"/><circle class="b" cx="2.5" cy="2.5" r="2.5" transform="translate(265.999 132.977)"/><circle class="b" cx="2.5" cy="2.5" r="2.5" transform="translate(-0.001 159.977)"/><circle class="b" cx="2.5" cy="2.5" r="2.5" transform="translate(26.999 159.977)"/><ellipse class="b" cx="3" cy="2.5" rx="3" ry="2.5" transform="translate(52.999 159.977)"/><circle class="b" cx="2.5" cy="2.5" r="2.5" transform="translate(79.999 159.977)"/><ellipse class="b" cx="3" cy="2.5" rx="3" ry="2.5" transform="translate(105.999 159.977)"/><circle class="b" cx="2.5" cy="2.5" r="2.5" transform="translate(132.999 159.977)"/><circle class="b" cx="2.5" cy="2.5" r="2.5" transform="translate(159.999 159.977)"/><ellipse class="b" cx="3" cy="2.5" rx="3" ry="2.5" transform="translate(185.999 159.977)"/><circle class="b" cx="2.5" cy="2.5" r="2.5" transform="translate(212.999 159.977)"/><ellipse class="b" cx="3" cy="2.5" rx="3" ry="2.5" transform="translate(238.999 159.977)"/><circle class="b" cx="2.5" cy="2.5" r="2.5" transform="translate(265.999 159.977)"/><ellipse class="b" cx="2.5" cy="3" rx="2.5" ry="3" transform="translate(-0.001 185.977)"/><ellipse class="b" cx="2.5" cy="3" rx="2.5" ry="3" transform="translate(26.999 185.977)"/><circle class="b" cx="3" cy="3" r="3" transform="translate(52.999 185.977)"/><ellipse class="b" cx="2.5" cy="3" rx="2.5" ry="3" transform="translate(79.999 185.977)"/><circle class="b" cx="3" cy="3" r="3" transform="translate(105.999 185.977)"/><ellipse class="b" cx="2.5" cy="3" rx="2.5" ry="3" transform="translate(132.999 185.977)"/><ellipse class="b" cx="2.5" cy="3" rx="2.5" ry="3" transform="translate(159.999 185.977)"/><circle class="b" cx="3" cy="3" r="3" transform="translate(185.999 185.977)"/><ellipse class="b" cx="2.5" cy="3" rx="2.5" ry="3" transform="translate(212.999 185.977)"/><circle class="b" cx="3" cy="3" r="3" transform="translate(238.999 185.977)"/><ellipse class="b" cx="2.5" cy="3" rx="2.5" ry="3" transform="translate(265.999 185.977)"/><circle class="b" cx="2.5" cy="2.5" r="2.5" transform="translate(-0.001 212.977)"/><circle class="b" cx="2.5" cy="2.5" r="2.5" transform="translate(26.999 212.977)"/><ellipse class="b" cx="3" cy="2.5" rx="3" ry="2.5" transform="translate(52.999 212.977)"/><circle class="b" cx="2.5" cy="2.5" r="2.5" transform="translate(79.999 212.977)"/><ellipse class="b" cx="3" cy="2.5" rx="3" ry="2.5" transform="translate(105.999 212.977)"/><circle class="b" cx="2.5" cy="2.5" r="2.5" transform="translate(132.999 212.977)"/><circle class="b" cx="2.5" cy="2.5" r="2.5" transform="translate(159.999 212.977)"/><ellipse class="b" cx="3" cy="2.5" rx="3" ry="2.5" transform="translate(185.999 212.977)"/><circle class="b" cx="2.5" cy="2.5" r="2.5" transform="translate(212.999 212.977)"/><ellipse class="b" cx="3" cy="2.5" rx="3" ry="2.5" transform="translate(238.999 212.977)"/><circle class="b" cx="2.5" cy="2.5" r="2.5" transform="translate(265.999 212.977)"/><circle class="b" cx="2.5" cy="2.5" r="2.5" transform="translate(-0.001 239.977)"/><circle class="b" cx="2.5" cy="2.5" r="2.5" transform="translate(26.999 239.977)"/><ellipse class="b" cx="3" cy="2.5" rx="3" ry="2.5" transform="translate(52.999 239.977)"/><circle class="b" cx="2.5" cy="2.5" r="2.5" transform="translate(79.999 239.977)"/><ellipse class="b" cx="3" cy="2.5" rx="3" ry="2.5" transform="translate(105.999 239.977)"/><circle class="b" cx="2.5" cy="2.5" r="2.5" transform="translate(132.999 239.977)"/><circle class="b" cx="2.5" cy="2.5" r="2.5" transform="translate(159.999 239.977)"/><ellipse class="b" cx="3" cy="2.5" rx="3" ry="2.5" transform="translate(185.999 239.977)"/><circle class="b" cx="2.5" cy="2.5" r="2.5" transform="translate(212.999 239.977)"/><ellipse class="b" cx="3" cy="2.5" rx="3" ry="2.5" transform="translate(238.999 239.977)"/><circle class="b" cx="2.5" cy="2.5" r="2.5" transform="translate(265.999 239.977)"/><ellipse class="b" cx="2.5" cy="3" rx="2.5" ry="3" transform="translate(-0.001 265.977)"/><ellipse class="b" cx="2.5" cy="3" rx="2.5" ry="3" transform="translate(26.999 265.977)"/><circle class="b" cx="3" cy="3" r="3" transform="translate(52.999 265.977)"/><ellipse class="b" cx="2.5" cy="3" rx="2.5" ry="3" transform="translate(79.999 265.977)"/><circle class="b" cx="3" cy="3" r="3" transform="translate(105.999 265.977)"/><ellipse class="b" cx="2.5" cy="3" rx="2.5" ry="3" transform="translate(132.999 265.977)"/><ellipse class="b" cx="2.5" cy="3" rx="2.5" ry="3" transform="translate(159.999 265.977)"/><circle class="b" cx="3" cy="3" r="3" transform="translate(185.999 265.977)"/><ellipse class="b" cx="2.5" cy="3" rx="2.5" ry="3" transform="translate(212.999 265.977)"/><circle class="b" cx="3" cy="3" r="3" transform="translate(238.999 265.977)"/><ellipse class="b" cx="2.5" cy="3" rx="2.5" ry="3" transform="translate(265.999 265.977)"/></g><g transform="translate(1085.001 463.248)"><ellipse class="b" cx="2.5" cy="3" rx="2.5" ry="3" transform="translate(-0.001 -0.271)"/><ellipse class="b" cx="2.5" cy="3" rx="2.5" ry="3" transform="translate(26.999 -0.271)"/><circle class="b" cx="3" cy="3" r="3" transform="translate(52.999 -0.271)"/><ellipse class="b" cx="2.5" cy="3" rx="2.5" ry="3" transform="translate(79.999 -0.271)"/><circle class="b" cx="3" cy="3" r="3" transform="translate(105.999 -0.271)"/><ellipse class="b" cx="2.5" cy="3" rx="2.5" ry="3" transform="translate(132.999 -0.271)"/><ellipse class="b" cx="2.5" cy="3" rx="2.5" ry="3" transform="translate(159.999 -0.271)"/><circle class="b" cx="3" cy="3" r="3" transform="translate(185.999 -0.271)"/><ellipse class="b" cx="2.5" cy="3" rx="2.5" ry="3" transform="translate(212.999 -0.271)"/><circle class="b" cx="3" cy="3" r="3" transform="translate(238.999 -0.271)"/><ellipse class="b" cx="2.5" cy="3" rx="2.5" ry="3" transform="translate(265.999 -0.271)"/><circle class="b" cx="2.5" cy="2.5" r="2.5" transform="translate(-0.001 26.729)"/><circle class="b" cx="2.5" cy="2.5" r="2.5" transform="translate(26.999 26.729)"/><ellipse class="b" cx="3" cy="2.5" rx="3" ry="2.5" transform="translate(52.999 26.729)"/><circle class="b" cx="2.5" cy="2.5" r="2.5" transform="translate(79.999 26.729)"/><ellipse class="b" cx="3" cy="2.5" rx="3" ry="2.5" transform="translate(105.999 26.729)"/><circle class="b" cx="2.5" cy="2.5" r="2.5" transform="translate(132.999 26.729)"/><circle class="b" cx="2.5" cy="2.5" r="2.5" transform="translate(159.999 26.729)"/><ellipse class="b" cx="3" cy="2.5" rx="3" ry="2.5" transform="translate(185.999 26.729)"/><circle class="b" cx="2.5" cy="2.5" r="2.5" transform="translate(212.999 26.729)"/><ellipse class="b" cx="3" cy="2.5" rx="3" ry="2.5" transform="translate(238.999 26.729)"/><circle class="b" cx="2.5" cy="2.5" r="2.5" transform="translate(265.999 26.729)"/><ellipse class="b" cx="2.5" cy="3" rx="2.5" ry="3" transform="translate(-0.001 52.729)"/><ellipse class="b" cx="2.5" cy="3" rx="2.5" ry="3" transform="translate(26.999 52.729)"/><circle class="b" cx="3" cy="3" r="3" transform="translate(52.999 52.729)"/><ellipse class="b" cx="2.5" cy="3" rx="2.5" ry="3" transform="translate(79.999 52.729)"/><circle class="b" cx="3" cy="3" r="3" transform="translate(105.999 52.729)"/><ellipse class="b" cx="2.5" cy="3" rx="2.5" ry="3" transform="translate(132.999 52.729)"/><ellipse class="b" cx="2.5" cy="3" rx="2.5" ry="3" transform="translate(159.999 52.729)"/><circle class="b" cx="3" cy="3" r="3" transform="translate(185.999 52.729)"/><ellipse class="b" cx="2.5" cy="3" rx="2.5" ry="3" transform="translate(212.999 52.729)"/><circle class="b" cx="3" cy="3" r="3" transform="translate(238.999 52.729)"/><ellipse class="b" cx="2.5" cy="3" rx="2.5" ry="3" transform="translate(265.999 52.729)"/><circle class="b" cx="2.5" cy="2.5" r="2.5" transform="translate(-0.001 79.729)"/><circle class="b" cx="2.5" cy="2.5" r="2.5" transform="translate(26.999 79.729)"/><ellipse class="b" cx="3" cy="2.5" rx="3" ry="2.5" transform="translate(52.999 79.729)"/><circle class="b" cx="2.5" cy="2.5" r="2.5" transform="translate(79.999 79.729)"/><ellipse class="b" cx="3" cy="2.5" rx="3" ry="2.5" transform="translate(105.999 79.729)"/><circle class="b" cx="2.5" cy="2.5" r="2.5" transform="translate(132.999 79.729)"/><circle class="b" cx="2.5" cy="2.5" r="2.5" transform="translate(159.999 79.729)"/><ellipse class="b" cx="3" cy="2.5" rx="3" ry="2.5" transform="translate(185.999 79.729)"/><circle class="b" cx="2.5" cy="2.5" r="2.5" transform="translate(212.999 79.729)"/><ellipse class="b" cx="3" cy="2.5" rx="3" ry="2.5" transform="translate(238.999 79.729)"/><circle class="b" cx="2.5" cy="2.5" r="2.5" transform="translate(265.999 79.729)"/><ellipse class="b" cx="2.5" cy="3" rx="2.5" ry="3" transform="translate(-0.001 105.729)"/><ellipse class="b" cx="2.5" cy="3" rx="2.5" ry="3" transform="translate(26.999 105.729)"/><circle class="b" cx="3" cy="3" r="3" transform="translate(52.999 105.729)"/><ellipse class="b" cx="2.5" cy="3" rx="2.5" ry="3" transform="translate(79.999 105.729)"/><circle class="b" cx="3" cy="3" r="3" transform="translate(105.999 105.729)"/><ellipse class="b" cx="2.5" cy="3" rx="2.5" ry="3" transform="translate(132.999 105.729)"/><ellipse class="b" cx="2.5" cy="3" rx="2.5" ry="3" transform="translate(159.999 105.729)"/><circle class="b" cx="3" cy="3" r="3" transform="translate(185.999 105.729)"/><ellipse class="b" cx="2.5" cy="3" rx="2.5" ry="3" transform="translate(212.999 105.729)"/><circle class="b" cx="3" cy="3" r="3" transform="translate(238.999 105.729)"/><ellipse class="b" cx="2.5" cy="3" rx="2.5" ry="3" transform="translate(265.999 105.729)"/><ellipse class="b" cx="2.5" cy="2" rx="2.5" ry="2" transform="translate(-0.001 133.729)"/><ellipse class="b" cx="2.5" cy="2" rx="2.5" ry="2" transform="translate(26.999 133.729)"/><ellipse class="b" cx="3" cy="2" rx="3" ry="2" transform="translate(52.999 133.729)"/><ellipse class="b" cx="2.5" cy="2" rx="2.5" ry="2" transform="translate(79.999 133.729)"/><ellipse class="b" cx="3" cy="2" rx="3" ry="2" transform="translate(105.999 133.729)"/><ellipse class="b" cx="2.5" cy="2" rx="2.5" ry="2" transform="translate(132.999 133.729)"/><ellipse class="b" cx="2.5" cy="2" rx="2.5" ry="2" transform="translate(159.999 133.729)"/><ellipse class="b" cx="3" cy="2" rx="3" ry="2" transform="translate(185.999 133.729)"/><ellipse class="b" cx="2.5" cy="2" rx="2.5" ry="2" transform="translate(212.999 133.729)"/><ellipse class="b" cx="3" cy="2" rx="3" ry="2" transform="translate(238.999 133.729)"/><ellipse class="b" cx="2.5" cy="2" rx="2.5" ry="2" transform="translate(265.999 133.729)"/><ellipse class="b" cx="2.5" cy="3" rx="2.5" ry="3" transform="translate(-0.001 159.729)"/><ellipse class="b" cx="2.5" cy="3" rx="2.5" ry="3" transform="translate(26.999 159.729)"/><circle class="b" cx="3" cy="3" r="3" transform="translate(52.999 159.729)"/><ellipse class="b" cx="2.5" cy="3" rx="2.5" ry="3" transform="translate(79.999 159.729)"/><circle class="b" cx="3" cy="3" r="3" transform="translate(105.999 159.729)"/><ellipse class="b" cx="2.5" cy="3" rx="2.5" ry="3" transform="translate(132.999 159.729)"/><ellipse class="b" cx="2.5" cy="3" rx="2.5" ry="3" transform="translate(159.999 159.729)"/><circle class="b" cx="3" cy="3" r="3" transform="translate(185.999 159.729)"/><ellipse class="b" cx="2.5" cy="3" rx="2.5" ry="3" transform="translate(212.999 159.729)"/><circle class="b" cx="3" cy="3" r="3" transform="translate(238.999 159.729)"/><ellipse class="b" cx="2.5" cy="3" rx="2.5" ry="3" transform="translate(265.999 159.729)"/><circle class="b" cx="2.5" cy="2.5" r="2.5" transform="translate(-0.001 186.729)"/><circle class="b" cx="2.5" cy="2.5" r="2.5" transform="translate(26.999 186.729)"/><ellipse class="b" cx="3" cy="2.5" rx="3" ry="2.5" transform="translate(52.999 186.729)"/><circle class="b" cx="2.5" cy="2.5" r="2.5" transform="translate(79.999 186.729)"/><ellipse class="b" cx="3" cy="2.5" rx="3" ry="2.5" transform="translate(105.999 186.729)"/><circle class="b" cx="2.5" cy="2.5" r="2.5" transform="translate(132.999 186.729)"/><circle class="b" cx="2.5" cy="2.5" r="2.5" transform="translate(159.999 186.729)"/><ellipse class="b" cx="3" cy="2.5" rx="3" ry="2.5" transform="translate(185.999 186.729)"/><circle class="b" cx="2.5" cy="2.5" r="2.5" transform="translate(212.999 186.729)"/><ellipse class="b" cx="3" cy="2.5" rx="3" ry="2.5" transform="translate(238.999 186.729)"/><circle class="b" cx="2.5" cy="2.5" r="2.5" transform="translate(265.999 186.729)"/><ellipse class="b" cx="2.5" cy="3" rx="2.5" ry="3" transform="translate(-0.001 212.729)"/><ellipse class="b" cx="2.5" cy="3" rx="2.5" ry="3" transform="translate(26.999 212.729)"/><circle class="b" cx="3" cy="3" r="3" transform="translate(52.999 212.729)"/><ellipse class="b" cx="2.5" cy="3" rx="2.5" ry="3" transform="translate(79.999 212.729)"/><circle class="b" cx="3" cy="3" r="3" transform="translate(105.999 212.729)"/><ellipse class="b" cx="2.5" cy="3" rx="2.5" ry="3" transform="translate(132.999 212.729)"/><ellipse class="b" cx="2.5" cy="3" rx="2.5" ry="3" transform="translate(159.999 212.729)"/><circle class="b" cx="3" cy="3" r="3" transform="translate(185.999 212.729)"/><ellipse class="b" cx="2.5" cy="3" rx="2.5" ry="3" transform="translate(212.999 212.729)"/><circle class="b" cx="3" cy="3" r="3" transform="translate(238.999 212.729)"/><ellipse class="b" cx="2.5" cy="3" rx="2.5" ry="3" transform="translate(265.999 212.729)"/><circle class="b" cx="2.5" cy="2.5" r="2.5" transform="translate(-0.001 239.729)"/><circle class="b" cx="2.5" cy="2.5" r="2.5" transform="translate(26.999 239.729)"/><ellipse class="b" cx="3" cy="2.5" rx="3" ry="2.5" transform="translate(52.999 239.729)"/><circle class="b" cx="2.5" cy="2.5" r="2.5" transform="translate(79.999 239.729)"/><ellipse class="b" cx="3" cy="2.5" rx="3" ry="2.5" transform="translate(105.999 239.729)"/><circle class="b" cx="2.5" cy="2.5" r="2.5" transform="translate(132.999 239.729)"/><circle class="b" cx="2.5" cy="2.5" r="2.5" transform="translate(159.999 239.729)"/><ellipse class="b" cx="3" cy="2.5" rx="3" ry="2.5" transform="translate(185.999 239.729)"/><circle class="b" cx="2.5" cy="2.5" r="2.5" transform="translate(212.999 239.729)"/><ellipse class="b" cx="3" cy="2.5" rx="3" ry="2.5" transform="translate(238.999 239.729)"/><circle class="b" cx="2.5" cy="2.5" r="2.5" transform="translate(265.999 239.729)"/><ellipse class="b" cx="2.5" cy="3" rx="2.5" ry="3" transform="translate(-0.001 265.729)"/><ellipse class="b" cx="2.5" cy="3" rx="2.5" ry="3" transform="translate(26.999 265.729)"/><circle class="b" cx="3" cy="3" r="3" transform="translate(52.999 265.729)"/><ellipse class="b" cx="2.5" cy="3" rx="2.5" ry="3" transform="translate(79.999 265.729)"/><circle class="b" cx="3" cy="3" r="3" transform="translate(105.999 265.729)"/><ellipse class="b" cx="2.5" cy="3" rx="2.5" ry="3" transform="translate(132.999 265.729)"/><ellipse class="b" cx="2.5" cy="3" rx="2.5" ry="3" transform="translate(159.999 265.729)"/><circle class="b" cx="3" cy="3" r="3" transform="translate(185.999 265.729)"/><ellipse class="b" cx="2.5" cy="3" rx="2.5" ry="3" transform="translate(212.999 265.729)"/><circle class="b" cx="3" cy="3" r="3" transform="translate(238.999 265.729)"/><ellipse class="b" cx="2.5" cy="3" rx="2.5" ry="3" transform="translate(265.999 265.729)"/></g><g transform="translate(1085.001 758.495)"><circle class="b" cx="2.5" cy="2.5" r="2.5" transform="translate(-0.001 0.482)"/><circle class="b" cx="2.5" cy="2.5" r="2.5" transform="translate(26.999 0.482)"/><ellipse class="b" cx="3" cy="2.5" rx="3" ry="2.5" transform="translate(52.999 0.482)"/><circle class="b" cx="2.5" cy="2.5" r="2.5" transform="translate(79.999 0.482)"/><ellipse class="b" cx="3" cy="2.5" rx="3" ry="2.5" transform="translate(105.999 0.482)"/><circle class="b" cx="2.5" cy="2.5" r="2.5" transform="translate(132.999 0.482)"/><circle class="b" cx="2.5" cy="2.5" r="2.5" transform="translate(159.999 0.482)"/><ellipse class="b" cx="3" cy="2.5" rx="3" ry="2.5" transform="translate(185.999 0.482)"/><circle class="b" cx="2.5" cy="2.5" r="2.5" transform="translate(212.999 0.482)"/><ellipse class="b" cx="3" cy="2.5" rx="3" ry="2.5" transform="translate(238.999 0.482)"/><circle class="b" cx="2.5" cy="2.5" r="2.5" transform="translate(265.999 0.482)"/><ellipse class="b" cx="2.5" cy="3" rx="2.5" ry="3" transform="translate(-0.001 26.482)"/><ellipse class="b" cx="2.5" cy="3" rx="2.5" ry="3" transform="translate(26.999 26.482)"/><circle class="b" cx="3" cy="3" r="3" transform="translate(52.999 26.482)"/><ellipse class="b" cx="2.5" cy="3" rx="2.5" ry="3" transform="translate(79.999 26.482)"/><circle class="b" cx="3" cy="3" r="3" transform="translate(105.999 26.482)"/><ellipse class="b" cx="2.5" cy="3" rx="2.5" ry="3" transform="translate(132.999 26.482)"/><ellipse class="b" cx="2.5" cy="3" rx="2.5" ry="3" transform="translate(159.999 26.482)"/><circle class="b" cx="3" cy="3" r="3" transform="translate(185.999 26.482)"/><ellipse class="b" cx="2.5" cy="3" rx="2.5" ry="3" transform="translate(212.999 26.482)"/><circle class="b" cx="3" cy="3" r="3" transform="translate(238.999 26.482)"/><ellipse class="b" cx="2.5" cy="3" rx="2.5" ry="3" transform="translate(265.999 26.482)"/><circle class="b" cx="2.5" cy="2.5" r="2.5" transform="translate(-0.001 53.482)"/><circle class="b" cx="2.5" cy="2.5" r="2.5" transform="translate(26.999 53.482)"/><ellipse class="b" cx="3" cy="2.5" rx="3" ry="2.5" transform="translate(52.999 53.482)"/><circle class="b" cx="2.5" cy="2.5" r="2.5" transform="translate(79.999 53.482)"/><ellipse class="b" cx="3" cy="2.5" rx="3" ry="2.5" transform="translate(105.999 53.482)"/><circle class="b" cx="2.5" cy="2.5" r="2.5" transform="translate(132.999 53.482)"/><circle class="b" cx="2.5" cy="2.5" r="2.5" transform="translate(159.999 53.482)"/><ellipse class="b" cx="3" cy="2.5" rx="3" ry="2.5" transform="translate(185.999 53.482)"/><circle class="b" cx="2.5" cy="2.5" r="2.5" transform="translate(212.999 53.482)"/><ellipse class="b" cx="3" cy="2.5" rx="3" ry="2.5" transform="translate(238.999 53.482)"/><circle class="b" cx="2.5" cy="2.5" r="2.5" transform="translate(265.999 53.482)"/><ellipse class="b" cx="2.5" cy="3" rx="2.5" ry="3" transform="translate(-0.001 79.482)"/><ellipse class="b" cx="2.5" cy="3" rx="2.5" ry="3" transform="translate(26.999 79.482)"/><circle class="b" cx="3" cy="3" r="3" transform="translate(52.999 79.482)"/><ellipse class="b" cx="2.5" cy="3" rx="2.5" ry="3" transform="translate(79.999 79.482)"/><circle class="b" cx="3" cy="3" r="3" transform="translate(105.999 79.482)"/><ellipse class="b" cx="2.5" cy="3" rx="2.5" ry="3" transform="translate(132.999 79.482)"/><ellipse class="b" cx="2.5" cy="3" rx="2.5" ry="3" transform="translate(159.999 79.482)"/><circle class="b" cx="3" cy="3" r="3" transform="translate(185.999 79.482)"/><ellipse class="b" cx="2.5" cy="3" rx="2.5" ry="3" transform="translate(212.999 79.482)"/><circle class="b" cx="3" cy="3" r="3" transform="translate(238.999 79.482)"/><ellipse class="b" cx="2.5" cy="3" rx="2.5" ry="3" transform="translate(265.999 79.482)"/><circle class="b" cx="2.5" cy="2.5" r="2.5" transform="translate(-0.001 106.482)"/><circle class="b" cx="2.5" cy="2.5" r="2.5" transform="translate(26.999 106.482)"/><ellipse class="b" cx="3" cy="2.5" rx="3" ry="2.5" transform="translate(52.999 106.482)"/><circle class="b" cx="2.5" cy="2.5" r="2.5" transform="translate(79.999 106.482)"/><ellipse class="b" cx="3" cy="2.5" rx="3" ry="2.5" transform="translate(105.999 106.482)"/><circle class="b" cx="2.5" cy="2.5" r="2.5" transform="translate(132.999 106.482)"/><circle class="b" cx="2.5" cy="2.5" r="2.5" transform="translate(159.999 106.482)"/><ellipse class="b" cx="3" cy="2.5" rx="3" ry="2.5" transform="translate(185.999 106.482)"/><circle class="b" cx="2.5" cy="2.5" r="2.5" transform="translate(212.999 106.482)"/><ellipse class="b" cx="3" cy="2.5" rx="3" ry="2.5" transform="translate(238.999 106.482)"/><circle class="b" cx="2.5" cy="2.5" r="2.5" transform="translate(265.999 106.482)"/><circle class="b" cx="2.5" cy="2.5" r="2.5" transform="translate(-0.001 133.482)"/><circle class="b" cx="2.5" cy="2.5" r="2.5" transform="translate(26.999 133.482)"/><ellipse class="b" cx="3" cy="2.5" rx="3" ry="2.5" transform="translate(52.999 133.482)"/><circle class="b" cx="2.5" cy="2.5" r="2.5" transform="translate(79.999 133.482)"/><ellipse class="b" cx="3" cy="2.5" rx="3" ry="2.5" transform="translate(105.999 133.482)"/><circle class="b" cx="2.5" cy="2.5" r="2.5" transform="translate(132.999 133.482)"/><circle class="b" cx="2.5" cy="2.5" r="2.5" transform="translate(159.999 133.482)"/><ellipse class="b" cx="3" cy="2.5" rx="3" ry="2.5" transform="translate(185.999 133.482)"/><circle class="b" cx="2.5" cy="2.5" r="2.5" transform="translate(212.999 133.482)"/><ellipse class="b" cx="3" cy="2.5" rx="3" ry="2.5" transform="translate(238.999 133.482)"/><circle class="b" cx="2.5" cy="2.5" r="2.5" transform="translate(265.999 133.482)"/><ellipse class="b" cx="2.5" cy="3" rx="2.5" ry="3" transform="translate(-0.001 159.482)"/><ellipse class="b" cx="2.5" cy="3" rx="2.5" ry="3" transform="translate(26.999 159.482)"/><circle class="b" cx="3" cy="3" r="3" transform="translate(52.999 159.482)"/><ellipse class="b" cx="2.5" cy="3" rx="2.5" ry="3" transform="translate(79.999 159.482)"/><circle class="b" cx="3" cy="3" r="3" transform="translate(105.999 159.482)"/><ellipse class="b" cx="2.5" cy="3" rx="2.5" ry="3" transform="translate(132.999 159.482)"/><ellipse class="b" cx="2.5" cy="3" rx="2.5" ry="3" transform="translate(159.999 159.482)"/><circle class="b" cx="3" cy="3" r="3" transform="translate(185.999 159.482)"/><ellipse class="b" cx="2.5" cy="3" rx="2.5" ry="3" transform="translate(212.999 159.482)"/><circle class="b" cx="3" cy="3" r="3" transform="translate(238.999 159.482)"/><ellipse class="b" cx="2.5" cy="3" rx="2.5" ry="3" transform="translate(265.999 159.482)"/><circle class="b" cx="2.5" cy="2.5" r="2.5" transform="translate(-0.001 186.482)"/><circle class="b" cx="2.5" cy="2.5" r="2.5" transform="translate(26.999 186.482)"/><ellipse class="b" cx="3" cy="2.5" rx="3" ry="2.5" transform="translate(52.999 186.482)"/><circle class="b" cx="2.5" cy="2.5" r="2.5" transform="translate(79.999 186.482)"/><ellipse class="b" cx="3" cy="2.5" rx="3" ry="2.5" transform="translate(105.999 186.482)"/><circle class="b" cx="2.5" cy="2.5" r="2.5" transform="translate(132.999 186.482)"/><circle class="b" cx="2.5" cy="2.5" r="2.5" transform="translate(159.999 186.482)"/><ellipse class="b" cx="3" cy="2.5" rx="3" ry="2.5" transform="translate(185.999 186.482)"/><circle class="b" cx="2.5" cy="2.5" r="2.5" transform="translate(212.999 186.482)"/><ellipse class="b" cx="3" cy="2.5" rx="3" ry="2.5" transform="translate(238.999 186.482)"/><circle class="b" cx="2.5" cy="2.5" r="2.5" transform="translate(265.999 186.482)"/><ellipse class="b" cx="2.5" cy="3" rx="2.5" ry="3" transform="translate(-0.001 212.482)"/><ellipse class="b" cx="2.5" cy="3" rx="2.5" ry="3" transform="translate(26.999 212.482)"/><circle class="b" cx="3" cy="3" r="3" transform="translate(52.999 212.482)"/><ellipse class="b" cx="2.5" cy="3" rx="2.5" ry="3" transform="translate(79.999 212.482)"/><circle class="b" cx="3" cy="3" r="3" transform="translate(105.999 212.482)"/><ellipse class="b" cx="2.5" cy="3" rx="2.5" ry="3" transform="translate(132.999 212.482)"/><ellipse class="b" cx="2.5" cy="3" rx="2.5" ry="3" transform="translate(159.999 212.482)"/><circle class="b" cx="3" cy="3" r="3" transform="translate(185.999 212.482)"/><ellipse class="b" cx="2.5" cy="3" rx="2.5" ry="3" transform="translate(212.999 212.482)"/><circle class="b" cx="3" cy="3" r="3" transform="translate(238.999 212.482)"/><ellipse class="b" cx="2.5" cy="3" rx="2.5" ry="3" transform="translate(265.999 212.482)"/><circle class="b" cx="2.5" cy="2.5" r="2.5" transform="translate(-0.001 239.482)"/><circle class="b" cx="2.5" cy="2.5" r="2.5" transform="translate(26.999 239.482)"/><ellipse class="b" cx="3" cy="2.5" rx="3" ry="2.5" transform="translate(52.999 239.482)"/><circle class="b" cx="2.5" cy="2.5" r="2.5" transform="translate(79.999 239.482)"/><ellipse class="b" cx="3" cy="2.5" rx="3" ry="2.5" transform="translate(105.999 239.482)"/><circle class="b" cx="2.5" cy="2.5" r="2.5" transform="translate(132.999 239.482)"/><circle class="b" cx="2.5" cy="2.5" r="2.5" transform="translate(159.999 239.482)"/><ellipse class="b" cx="3" cy="2.5" rx="3" ry="2.5" transform="translate(185.999 239.482)"/><circle class="b" cx="2.5" cy="2.5" r="2.5" transform="translate(212.999 239.482)"/><ellipse class="b" cx="3" cy="2.5" rx="3" ry="2.5" transform="translate(238.999 239.482)"/><circle class="b" cx="2.5" cy="2.5" r="2.5" transform="translate(265.999 239.482)"/><circle class="b" cx="2.5" cy="2.5" r="2.5" transform="translate(-0.001 266.482)"/><circle class="b" cx="2.5" cy="2.5" r="2.5" transform="translate(26.999 266.482)"/><ellipse class="b" cx="3" cy="2.5" rx="3" ry="2.5" transform="translate(52.999 266.482)"/><circle class="b" cx="2.5" cy="2.5" r="2.5" transform="translate(79.999 266.482)"/><ellipse class="b" cx="3" cy="2.5" rx="3" ry="2.5" transform="translate(105.999 266.482)"/><circle class="b" cx="2.5" cy="2.5" r="2.5" transform="translate(132.999 266.482)"/><circle class="b" cx="2.5" cy="2.5" r="2.5" transform="translate(159.999 266.482)"/><ellipse class="b" cx="3" cy="2.5" rx="3" ry="2.5" transform="translate(185.999 266.482)"/><circle class="b" cx="2.5" cy="2.5" r="2.5" transform="translate(212.999 266.482)"/><ellipse class="b" cx="3" cy="2.5" rx="3" ry="2.5" transform="translate(238.999 266.482)"/><circle class="b" cx="2.5" cy="2.5" r="2.5" transform="translate(265.999 266.482)"/></g></g><g class="a" transform="translate(257 41.023)"><g transform="translate(1085.001 168)"><ellipse class="b" cx="2.5" cy="3" rx="2.5" ry="3" transform="translate(-0.001 -0.023)"/><ellipse class="b" cx="2.5" cy="3" rx="2.5" ry="3" transform="translate(26.999 -0.023)"/><circle class="b" cx="3" cy="3" r="3" transform="translate(52.999 -0.023)"/><ellipse class="b" cx="2.5" cy="3" rx="2.5" ry="3" transform="translate(79.999 -0.023)"/><circle class="b" cx="3" cy="3" r="3" transform="translate(105.999 -0.023)"/><ellipse class="b" cx="2.5" cy="3" rx="2.5" ry="3" transform="translate(132.999 -0.023)"/><ellipse class="b" cx="2.5" cy="3" rx="2.5" ry="3" transform="translate(159.999 -0.023)"/><circle class="b" cx="3" cy="3" r="3" transform="translate(185.999 -0.023)"/><ellipse class="b" cx="2.5" cy="3" rx="2.5" ry="3" transform="translate(212.999 -0.023)"/><circle class="b" cx="3" cy="3" r="3" transform="translate(238.999 -0.023)"/><ellipse class="b" cx="2.5" cy="3" rx="2.5" ry="3" transform="translate(265.999 -0.023)"/><circle class="b" cx="2.5" cy="2.5" r="2.5" transform="translate(-0.001 26.977)"/><circle class="b" cx="2.5" cy="2.5" r="2.5" transform="translate(26.999 26.977)"/><ellipse class="b" cx="3" cy="2.5" rx="3" ry="2.5" transform="translate(52.999 26.977)"/><circle class="b" cx="2.5" cy="2.5" r="2.5" transform="translate(79.999 26.977)"/><ellipse class="b" cx="3" cy="2.5" rx="3" ry="2.5" transform="translate(105.999 26.977)"/><circle class="b" cx="2.5" cy="2.5" r="2.5" transform="translate(132.999 26.977)"/><circle class="b" cx="2.5" cy="2.5" r="2.5" transform="translate(159.999 26.977)"/><ellipse class="b" cx="3" cy="2.5" rx="3" ry="2.5" transform="translate(185.999 26.977)"/><circle class="b" cx="2.5" cy="2.5" r="2.5" transform="translate(212.999 26.977)"/><ellipse class="b" cx="3" cy="2.5" rx="3" ry="2.5" transform="translate(238.999 26.977)"/><circle class="b" cx="2.5" cy="2.5" r="2.5" transform="translate(265.999 26.977)"/><ellipse class="b" cx="2.5" cy="3" rx="2.5" ry="3" transform="translate(-0.001 52.977)"/><ellipse class="b" cx="2.5" cy="3" rx="2.5" ry="3" transform="translate(26.999 52.977)"/><circle class="b" cx="3" cy="3" r="3" transform="translate(52.999 52.977)"/><ellipse class="b" cx="2.5" cy="3" rx="2.5" ry="3" transform="translate(79.999 52.977)"/><circle class="b" cx="3" cy="3" r="3" transform="translate(105.999 52.977)"/><ellipse class="b" cx="2.5" cy="3" rx="2.5" ry="3" transform="translate(132.999 52.977)"/><ellipse class="b" cx="2.5" cy="3" rx="2.5" ry="3" transform="translate(159.999 52.977)"/><circle class="b" cx="3" cy="3" r="3" transform="translate(185.999 52.977)"/><ellipse class="b" cx="2.5" cy="3" rx="2.5" ry="3" transform="translate(212.999 52.977)"/><circle class="b" cx="3" cy="3" r="3" transform="translate(238.999 52.977)"/><ellipse class="b" cx="2.5" cy="3" rx="2.5" ry="3" transform="translate(265.999 52.977)"/><circle class="b" cx="2.5" cy="2.5" r="2.5" transform="translate(-0.001 79.977)"/><circle class="b" cx="2.5" cy="2.5" r="2.5" transform="translate(26.999 79.977)"/><ellipse class="b" cx="3" cy="2.5" rx="3" ry="2.5" transform="translate(52.999 79.977)"/><circle class="b" cx="2.5" cy="2.5" r="2.5" transform="translate(79.999 79.977)"/><ellipse class="b" cx="3" cy="2.5" rx="3" ry="2.5" transform="translate(105.999 79.977)"/><circle class="b" cx="2.5" cy="2.5" r="2.5" transform="translate(132.999 79.977)"/><circle class="b" cx="2.5" cy="2.5" r="2.5" transform="translate(159.999 79.977)"/><ellipse class="b" cx="3" cy="2.5" rx="3" ry="2.5" transform="translate(185.999 79.977)"/><circle class="b" cx="2.5" cy="2.5" r="2.5" transform="translate(212.999 79.977)"/><ellipse class="b" cx="3" cy="2.5" rx="3" ry="2.5" transform="translate(238.999 79.977)"/><circle class="b" cx="2.5" cy="2.5" r="2.5" transform="translate(265.999 79.977)"/><ellipse class="b" cx="2.5" cy="3" rx="2.5" ry="3" transform="translate(-0.001 105.977)"/><ellipse class="b" cx="2.5" cy="3" rx="2.5" ry="3" transform="translate(26.999 105.977)"/><circle class="b" cx="3" cy="3" r="3" transform="translate(52.999 105.977)"/><ellipse class="b" cx="2.5" cy="3" rx="2.5" ry="3" transform="translate(79.999 105.977)"/><circle class="b" cx="3" cy="3" r="3" transform="translate(105.999 105.977)"/><ellipse class="b" cx="2.5" cy="3" rx="2.5" ry="3" transform="translate(132.999 105.977)"/><ellipse class="b" cx="2.5" cy="3" rx="2.5" ry="3" transform="translate(159.999 105.977)"/><circle class="b" cx="3" cy="3" r="3" transform="translate(185.999 105.977)"/><ellipse class="b" cx="2.5" cy="3" rx="2.5" ry="3" transform="translate(212.999 105.977)"/><circle class="b" cx="3" cy="3" r="3" transform="translate(238.999 105.977)"/><ellipse class="b" cx="2.5" cy="3" rx="2.5" ry="3" transform="translate(265.999 105.977)"/><circle class="b" cx="2.5" cy="2.5" r="2.5" transform="translate(-0.001 132.977)"/><circle class="b" cx="2.5" cy="2.5" r="2.5" transform="translate(26.999 132.977)"/><ellipse class="b" cx="3" cy="2.5" rx="3" ry="2.5" transform="translate(52.999 132.977)"/><circle class="b" cx="2.5" cy="2.5" r="2.5" transform="translate(79.999 132.977)"/><ellipse class="b" cx="3" cy="2.5" rx="3" ry="2.5" transform="translate(105.999 132.977)"/><circle class="b" cx="2.5" cy="2.5" r="2.5" transform="translate(132.999 132.977)"/><circle class="b" cx="2.5" cy="2.5" r="2.5" transform="translate(159.999 132.977)"/><ellipse class="b" cx="3" cy="2.5" rx="3" ry="2.5" transform="translate(185.999 132.977)"/><circle class="b" cx="2.5" cy="2.5" r="2.5" transform="translate(212.999 132.977)"/><ellipse class="b" cx="3" cy="2.5" rx="3" ry="2.5" transform="translate(238.999 132.977)"/><circle class="b" cx="2.5" cy="2.5" r="2.5" transform="translate(265.999 132.977)"/><circle class="b" cx="2.5" cy="2.5" r="2.5" transform="translate(-0.001 159.977)"/><circle class="b" cx="2.5" cy="2.5" r="2.5" transform="translate(26.999 159.977)"/><ellipse class="b" cx="3" cy="2.5" rx="3" ry="2.5" transform="translate(52.999 159.977)"/><circle class="b" cx="2.5" cy="2.5" r="2.5" transform="translate(79.999 159.977)"/><ellipse class="b" cx="3" cy="2.5" rx="3" ry="2.5" transform="translate(105.999 159.977)"/><circle class="b" cx="2.5" cy="2.5" r="2.5" transform="translate(132.999 159.977)"/><circle class="b" cx="2.5" cy="2.5" r="2.5" transform="translate(159.999 159.977)"/><ellipse class="b" cx="3" cy="2.5" rx="3" ry="2.5" transform="translate(185.999 159.977)"/><circle class="b" cx="2.5" cy="2.5" r="2.5" transform="translate(212.999 159.977)"/><ellipse class="b" cx="3" cy="2.5" rx="3" ry="2.5" transform="translate(238.999 159.977)"/><circle class="b" cx="2.5" cy="2.5" r="2.5" transform="translate(265.999 159.977)"/><ellipse class="b" cx="2.5" cy="3" rx="2.5" ry="3" transform="translate(-0.001 185.977)"/><ellipse class="b" cx="2.5" cy="3" rx="2.5" ry="3" transform="translate(26.999 185.977)"/><circle class="b" cx="3" cy="3" r="3" transform="translate(52.999 185.977)"/><ellipse class="b" cx="2.5" cy="3" rx="2.5" ry="3" transform="translate(79.999 185.977)"/><circle class="b" cx="3" cy="3" r="3" transform="translate(105.999 185.977)"/><ellipse class="b" cx="2.5" cy="3" rx="2.5" ry="3" transform="translate(132.999 185.977)"/><ellipse class="b" cx="2.5" cy="3" rx="2.5" ry="3" transform="translate(159.999 185.977)"/><circle class="b" cx="3" cy="3" r="3" transform="translate(185.999 185.977)"/><ellipse class="b" cx="2.5" cy="3" rx="2.5" ry="3" transform="translate(212.999 185.977)"/><circle class="b" cx="3" cy="3" r="3" transform="translate(238.999 185.977)"/><ellipse class="b" cx="2.5" cy="3" rx="2.5" ry="3" transform="translate(265.999 185.977)"/><circle class="b" cx="2.5" cy="2.5" r="2.5" transform="translate(-0.001 212.977)"/><circle class="b" cx="2.5" cy="2.5" r="2.5" transform="translate(26.999 212.977)"/><ellipse class="b" cx="3" cy="2.5" rx="3" ry="2.5" transform="translate(52.999 212.977)"/><circle class="b" cx="2.5" cy="2.5" r="2.5" transform="translate(79.999 212.977)"/><ellipse class="b" cx="3" cy="2.5" rx="3" ry="2.5" transform="translate(105.999 212.977)"/><circle class="b" cx="2.5" cy="2.5" r="2.5" transform="translate(132.999 212.977)"/><circle class="b" cx="2.5" cy="2.5" r="2.5" transform="translate(159.999 212.977)"/><ellipse class="b" cx="3" cy="2.5" rx="3" ry="2.5" transform="translate(185.999 212.977)"/><circle class="b" cx="2.5" cy="2.5" r="2.5" transform="translate(212.999 212.977)"/><ellipse class="b" cx="3" cy="2.5" rx="3" ry="2.5" transform="translate(238.999 212.977)"/><circle class="b" cx="2.5" cy="2.5" r="2.5" transform="translate(265.999 212.977)"/><circle class="b" cx="2.5" cy="2.5" r="2.5" transform="translate(-0.001 239.977)"/><circle class="b" cx="2.5" cy="2.5" r="2.5" transform="translate(26.999 239.977)"/><ellipse class="b" cx="3" cy="2.5" rx="3" ry="2.5" transform="translate(52.999 239.977)"/><circle class="b" cx="2.5" cy="2.5" r="2.5" transform="translate(79.999 239.977)"/><ellipse class="b" cx="3" cy="2.5" rx="3" ry="2.5" transform="translate(105.999 239.977)"/><circle class="b" cx="2.5" cy="2.5" r="2.5" transform="translate(132.999 239.977)"/><circle class="b" cx="2.5" cy="2.5" r="2.5" transform="translate(159.999 239.977)"/><ellipse class="b" cx="3" cy="2.5" rx="3" ry="2.5" transform="translate(185.999 239.977)"/><circle class="b" cx="2.5" cy="2.5" r="2.5" transform="translate(212.999 239.977)"/><ellipse class="b" cx="3" cy="2.5" rx="3" ry="2.5" transform="translate(238.999 239.977)"/><circle class="b" cx="2.5" cy="2.5" r="2.5" transform="translate(265.999 239.977)"/><ellipse class="b" cx="2.5" cy="3" rx="2.5" ry="3" transform="translate(-0.001 265.977)"/><ellipse class="b" cx="2.5" cy="3" rx="2.5" ry="3" transform="translate(26.999 265.977)"/><circle class="b" cx="3" cy="3" r="3" transform="translate(52.999 265.977)"/><ellipse class="b" cx="2.5" cy="3" rx="2.5" ry="3" transform="translate(79.999 265.977)"/><circle class="b" cx="3" cy="3" r="3" transform="translate(105.999 265.977)"/><ellipse class="b" cx="2.5" cy="3" rx="2.5" ry="3" transform="translate(132.999 265.977)"/><ellipse class="b" cx="2.5" cy="3" rx="2.5" ry="3" transform="translate(159.999 265.977)"/><circle class="b" cx="3" cy="3" r="3" transform="translate(185.999 265.977)"/><ellipse class="b" cx="2.5" cy="3" rx="2.5" ry="3" transform="translate(212.999 265.977)"/><circle class="b" cx="3" cy="3" r="3" transform="translate(238.999 265.977)"/><ellipse class="b" cx="2.5" cy="3" rx="2.5" ry="3" transform="translate(265.999 265.977)"/></g><g transform="translate(1085.001 463.248)"><ellipse class="b" cx="2.5" cy="3" rx="2.5" ry="3" transform="translate(-0.001 -0.271)"/><ellipse class="b" cx="2.5" cy="3" rx="2.5" ry="3" transform="translate(26.999 -0.271)"/><circle class="b" cx="3" cy="3" r="3" transform="translate(52.999 -0.271)"/><ellipse class="b" cx="2.5" cy="3" rx="2.5" ry="3" transform="translate(79.999 -0.271)"/><circle class="b" cx="3" cy="3" r="3" transform="translate(105.999 -0.271)"/><ellipse class="b" cx="2.5" cy="3" rx="2.5" ry="3" transform="translate(132.999 -0.271)"/><ellipse class="b" cx="2.5" cy="3" rx="2.5" ry="3" transform="translate(159.999 -0.271)"/><circle class="b" cx="3" cy="3" r="3" transform="translate(185.999 -0.271)"/><ellipse class="b" cx="2.5" cy="3" rx="2.5" ry="3" transform="translate(212.999 -0.271)"/><circle class="b" cx="3" cy="3" r="3" transform="translate(238.999 -0.271)"/><ellipse class="b" cx="2.5" cy="3" rx="2.5" ry="3" transform="translate(265.999 -0.271)"/><circle class="b" cx="2.5" cy="2.5" r="2.5" transform="translate(-0.001 26.729)"/><circle class="b" cx="2.5" cy="2.5" r="2.5" transform="translate(26.999 26.729)"/><ellipse class="b" cx="3" cy="2.5" rx="3" ry="2.5" transform="translate(52.999 26.729)"/><circle class="b" cx="2.5" cy="2.5" r="2.5" transform="translate(79.999 26.729)"/><ellipse class="b" cx="3" cy="2.5" rx="3" ry="2.5" transform="translate(105.999 26.729)"/><circle class="b" cx="2.5" cy="2.5" r="2.5" transform="translate(132.999 26.729)"/><circle class="b" cx="2.5" cy="2.5" r="2.5" transform="translate(159.999 26.729)"/><ellipse class="b" cx="3" cy="2.5" rx="3" ry="2.5" transform="translate(185.999 26.729)"/><circle class="b" cx="2.5" cy="2.5" r="2.5" transform="translate(212.999 26.729)"/><ellipse class="b" cx="3" cy="2.5" rx="3" ry="2.5" transform="translate(238.999 26.729)"/><circle class="b" cx="2.5" cy="2.5" r="2.5" transform="translate(265.999 26.729)"/><ellipse class="b" cx="2.5" cy="3" rx="2.5" ry="3" transform="translate(-0.001 52.729)"/><ellipse class="b" cx="2.5" cy="3" rx="2.5" ry="3" transform="translate(26.999 52.729)"/><circle class="b" cx="3" cy="3" r="3" transform="translate(52.999 52.729)"/><ellipse class="b" cx="2.5" cy="3" rx="2.5" ry="3" transform="translate(79.999 52.729)"/><circle class="b" cx="3" cy="3" r="3" transform="translate(105.999 52.729)"/><ellipse class="b" cx="2.5" cy="3" rx="2.5" ry="3" transform="translate(132.999 52.729)"/><ellipse class="b" cx="2.5" cy="3" rx="2.5" ry="3" transform="translate(159.999 52.729)"/><circle class="b" cx="3" cy="3" r="3" transform="translate(185.999 52.729)"/><ellipse class="b" cx="2.5" cy="3" rx="2.5" ry="3" transform="translate(212.999 52.729)"/><circle class="b" cx="3" cy="3" r="3" transform="translate(238.999 52.729)"/><ellipse class="b" cx="2.5" cy="3" rx="2.5" ry="3" transform="translate(265.999 52.729)"/><circle class="b" cx="2.5" cy="2.5" r="2.5" transform="translate(-0.001 79.729)"/><circle class="b" cx="2.5" cy="2.5" r="2.5" transform="translate(26.999 79.729)"/><ellipse class="b" cx="3" cy="2.5" rx="3" ry="2.5" transform="translate(52.999 79.729)"/><circle class="b" cx="2.5" cy="2.5" r="2.5" transform="translate(79.999 79.729)"/><ellipse class="b" cx="3" cy="2.5" rx="3" ry="2.5" transform="translate(105.999 79.729)"/><circle class="b" cx="2.5" cy="2.5" r="2.5" transform="translate(132.999 79.729)"/><circle class="b" cx="2.5" cy="2.5" r="2.5" transform="translate(159.999 79.729)"/><ellipse class="b" cx="3" cy="2.5" rx="3" ry="2.5" transform="translate(185.999 79.729)"/><circle class="b" cx="2.5" cy="2.5" r="2.5" transform="translate(212.999 79.729)"/><ellipse class="b" cx="3" cy="2.5" rx="3" ry="2.5" transform="translate(238.999 79.729)"/><circle class="b" cx="2.5" cy="2.5" r="2.5" transform="translate(265.999 79.729)"/><ellipse class="b" cx="2.5" cy="3" rx="2.5" ry="3" transform="translate(-0.001 105.729)"/><ellipse class="b" cx="2.5" cy="3" rx="2.5" ry="3" transform="translate(26.999 105.729)"/><circle class="b" cx="3" cy="3" r="3" transform="translate(52.999 105.729)"/><ellipse class="b" cx="2.5" cy="3" rx="2.5" ry="3" transform="translate(79.999 105.729)"/><circle class="b" cx="3" cy="3" r="3" transform="translate(105.999 105.729)"/><ellipse class="b" cx="2.5" cy="3" rx="2.5" ry="3" transform="translate(132.999 105.729)"/><ellipse class="b" cx="2.5" cy="3" rx="2.5" ry="3" transform="translate(159.999 105.729)"/><circle class="b" cx="3" cy="3" r="3" transform="translate(185.999 105.729)"/><ellipse class="b" cx="2.5" cy="3" rx="2.5" ry="3" transform="translate(212.999 105.729)"/><circle class="b" cx="3" cy="3" r="3" transform="translate(238.999 105.729)"/><ellipse class="b" cx="2.5" cy="3" rx="2.5" ry="3" transform="translate(265.999 105.729)"/><ellipse class="b" cx="2.5" cy="2" rx="2.5" ry="2" transform="translate(-0.001 133.729)"/><ellipse class="b" cx="2.5" cy="2" rx="2.5" ry="2" transform="translate(26.999 133.729)"/><ellipse class="b" cx="3" cy="2" rx="3" ry="2" transform="translate(52.999 133.729)"/><ellipse class="b" cx="2.5" cy="2" rx="2.5" ry="2" transform="translate(79.999 133.729)"/><ellipse class="b" cx="3" cy="2" rx="3" ry="2" transform="translate(105.999 133.729)"/><ellipse class="b" cx="2.5" cy="2" rx="2.5" ry="2" transform="translate(132.999 133.729)"/><ellipse class="b" cx="2.5" cy="2" rx="2.5" ry="2" transform="translate(159.999 133.729)"/><ellipse class="b" cx="3" cy="2" rx="3" ry="2" transform="translate(185.999 133.729)"/><ellipse class="b" cx="2.5" cy="2" rx="2.5" ry="2" transform="translate(212.999 133.729)"/><ellipse class="b" cx="3" cy="2" rx="3" ry="2" transform="translate(238.999 133.729)"/><ellipse class="b" cx="2.5" cy="2" rx="2.5" ry="2" transform="translate(265.999 133.729)"/><ellipse class="b" cx="2.5" cy="3" rx="2.5" ry="3" transform="translate(-0.001 159.729)"/><ellipse class="b" cx="2.5" cy="3" rx="2.5" ry="3" transform="translate(26.999 159.729)"/><circle class="b" cx="3" cy="3" r="3" transform="translate(52.999 159.729)"/><ellipse class="b" cx="2.5" cy="3" rx="2.5" ry="3" transform="translate(79.999 159.729)"/><circle class="b" cx="3" cy="3" r="3" transform="translate(105.999 159.729)"/><ellipse class="b" cx="2.5" cy="3" rx="2.5" ry="3" transform="translate(132.999 159.729)"/><ellipse class="b" cx="2.5" cy="3" rx="2.5" ry="3" transform="translate(159.999 159.729)"/><circle class="b" cx="3" cy="3" r="3" transform="translate(185.999 159.729)"/><ellipse class="b" cx="2.5" cy="3" rx="2.5" ry="3" transform="translate(212.999 159.729)"/><circle class="b" cx="3" cy="3" r="3" transform="translate(238.999 159.729)"/><ellipse class="b" cx="2.5" cy="3" rx="2.5" ry="3" transform="translate(265.999 159.729)"/><circle class="b" cx="2.5" cy="2.5" r="2.5" transform="translate(-0.001 186.729)"/><circle class="b" cx="2.5" cy="2.5" r="2.5" transform="translate(26.999 186.729)"/><ellipse class="b" cx="3" cy="2.5" rx="3" ry="2.5" transform="translate(52.999 186.729)"/><circle class="b" cx="2.5" cy="2.5" r="2.5" transform="translate(79.999 186.729)"/><ellipse class="b" cx="3" cy="2.5" rx="3" ry="2.5" transform="translate(105.999 186.729)"/><circle class="b" cx="2.5" cy="2.5" r="2.5" transform="translate(132.999 186.729)"/><circle class="b" cx="2.5" cy="2.5" r="2.5" transform="translate(159.999 186.729)"/><ellipse class="b" cx="3" cy="2.5" rx="3" ry="2.5" transform="translate(185.999 186.729)"/><circle class="b" cx="2.5" cy="2.5" r="2.5" transform="translate(212.999 186.729)"/><ellipse class="b" cx="3" cy="2.5" rx="3" ry="2.5" transform="translate(238.999 186.729)"/><circle class="b" cx="2.5" cy="2.5" r="2.5" transform="translate(265.999 186.729)"/><ellipse class="b" cx="2.5" cy="3" rx="2.5" ry="3" transform="translate(-0.001 212.729)"/><ellipse class="b" cx="2.5" cy="3" rx="2.5" ry="3" transform="translate(26.999 212.729)"/><circle class="b" cx="3" cy="3" r="3" transform="translate(52.999 212.729)"/><ellipse class="b" cx="2.5" cy="3" rx="2.5" ry="3" transform="translate(79.999 212.729)"/><circle class="b" cx="3" cy="3" r="3" transform="translate(105.999 212.729)"/><ellipse class="b" cx="2.5" cy="3" rx="2.5" ry="3" transform="translate(132.999 212.729)"/><ellipse class="b" cx="2.5" cy="3" rx="2.5" ry="3" transform="translate(159.999 212.729)"/><circle class="b" cx="3" cy="3" r="3" transform="translate(185.999 212.729)"/><ellipse class="b" cx="2.5" cy="3" rx="2.5" ry="3" transform="translate(212.999 212.729)"/><circle class="b" cx="3" cy="3" r="3" transform="translate(238.999 212.729)"/><ellipse class="b" cx="2.5" cy="3" rx="2.5" ry="3" transform="translate(265.999 212.729)"/><circle class="b" cx="2.5" cy="2.5" r="2.5" transform="translate(-0.001 239.729)"/><circle class="b" cx="2.5" cy="2.5" r="2.5" transform="translate(26.999 239.729)"/><ellipse class="b" cx="3" cy="2.5" rx="3" ry="2.5" transform="translate(52.999 239.729)"/><circle class="b" cx="2.5" cy="2.5" r="2.5" transform="translate(79.999 239.729)"/><ellipse class="b" cx="3" cy="2.5" rx="3" ry="2.5" transform="translate(105.999 239.729)"/><circle class="b" cx="2.5" cy="2.5" r="2.5" transform="translate(132.999 239.729)"/><circle class="b" cx="2.5" cy="2.5" r="2.5" transform="translate(159.999 239.729)"/><ellipse class="b" cx="3" cy="2.5" rx="3" ry="2.5" transform="translate(185.999 239.729)"/><circle class="b" cx="2.5" cy="2.5" r="2.5" transform="translate(212.999 239.729)"/><ellipse class="b" cx="3" cy="2.5" rx="3" ry="2.5" transform="translate(238.999 239.729)"/><circle class="b" cx="2.5" cy="2.5" r="2.5" transform="translate(265.999 239.729)"/><ellipse class="b" cx="2.5" cy="3" rx="2.5" ry="3" transform="translate(-0.001 265.729)"/><ellipse class="b" cx="2.5" cy="3" rx="2.5" ry="3" transform="translate(26.999 265.729)"/><circle class="b" cx="3" cy="3" r="3" transform="translate(52.999 265.729)"/><ellipse class="b" cx="2.5" cy="3" rx="2.5" ry="3" transform="translate(79.999 265.729)"/><circle class="b" cx="3" cy="3" r="3" transform="translate(105.999 265.729)"/><ellipse class="b" cx="2.5" cy="3" rx="2.5" ry="3" transform="translate(132.999 265.729)"/><ellipse class="b" cx="2.5" cy="3" rx="2.5" ry="3" transform="translate(159.999 265.729)"/><circle class="b" cx="3" cy="3" r="3" transform="translate(185.999 265.729)"/><ellipse class="b" cx="2.5" cy="3" rx="2.5" ry="3" transform="translate(212.999 265.729)"/><circle class="b" cx="3" cy="3" r="3" transform="translate(238.999 265.729)"/><ellipse class="b" cx="2.5" cy="3" rx="2.5" ry="3" transform="translate(265.999 265.729)"/></g><g transform="translate(1085.001 758.495)"><circle class="b" cx="2.5" cy="2.5" r="2.5" transform="translate(-0.001 0.482)"/><circle class="b" cx="2.5" cy="2.5" r="2.5" transform="translate(26.999 0.482)"/><ellipse class="b" cx="3" cy="2.5" rx="3" ry="2.5" transform="translate(52.999 0.482)"/><circle class="b" cx="2.5" cy="2.5" r="2.5" transform="translate(79.999 0.482)"/><ellipse class="b" cx="3" cy="2.5" rx="3" ry="2.5" transform="translate(105.999 0.482)"/><circle class="b" cx="2.5" cy="2.5" r="2.5" transform="translate(132.999 0.482)"/><circle class="b" cx="2.5" cy="2.5" r="2.5" transform="translate(159.999 0.482)"/><ellipse class="b" cx="3" cy="2.5" rx="3" ry="2.5" transform="translate(185.999 0.482)"/><circle class="b" cx="2.5" cy="2.5" r="2.5" transform="translate(212.999 0.482)"/><ellipse class="b" cx="3" cy="2.5" rx="3" ry="2.5" transform="translate(238.999 0.482)"/><circle class="b" cx="2.5" cy="2.5" r="2.5" transform="translate(265.999 0.482)"/><ellipse class="b" cx="2.5" cy="3" rx="2.5" ry="3" transform="translate(-0.001 26.482)"/><ellipse class="b" cx="2.5" cy="3" rx="2.5" ry="3" transform="translate(26.999 26.482)"/><circle class="b" cx="3" cy="3" r="3" transform="translate(52.999 26.482)"/><ellipse class="b" cx="2.5" cy="3" rx="2.5" ry="3" transform="translate(79.999 26.482)"/><circle class="b" cx="3" cy="3" r="3" transform="translate(105.999 26.482)"/><ellipse class="b" cx="2.5" cy="3" rx="2.5" ry="3" transform="translate(132.999 26.482)"/><ellipse class="b" cx="2.5" cy="3" rx="2.5" ry="3" transform="translate(159.999 26.482)"/><circle class="b" cx="3" cy="3" r="3" transform="translate(185.999 26.482)"/><ellipse class="b" cx="2.5" cy="3" rx="2.5" ry="3" transform="translate(212.999 26.482)"/><circle class="b" cx="3" cy="3" r="3" transform="translate(238.999 26.482)"/><ellipse class="b" cx="2.5" cy="3" rx="2.5" ry="3" transform="translate(265.999 26.482)"/><circle class="b" cx="2.5" cy="2.5" r="2.5" transform="translate(-0.001 53.482)"/><circle class="b" cx="2.5" cy="2.5" r="2.5" transform="translate(26.999 53.482)"/><ellipse class="b" cx="3" cy="2.5" rx="3" ry="2.5" transform="translate(52.999 53.482)"/><circle class="b" cx="2.5" cy="2.5" r="2.5" transform="translate(79.999 53.482)"/><ellipse class="b" cx="3" cy="2.5" rx="3" ry="2.5" transform="translate(105.999 53.482)"/><circle class="b" cx="2.5" cy="2.5" r="2.5" transform="translate(132.999 53.482)"/><circle class="b" cx="2.5" cy="2.5" r="2.5" transform="translate(159.999 53.482)"/><ellipse class="b" cx="3" cy="2.5" rx="3" ry="2.5" transform="translate(185.999 53.482)"/><circle class="b" cx="2.5" cy="2.5" r="2.5" transform="translate(212.999 53.482)"/><ellipse class="b" cx="3" cy="2.5" rx="3" ry="2.5" transform="translate(238.999 53.482)"/><circle class="b" cx="2.5" cy="2.5" r="2.5" transform="translate(265.999 53.482)"/><ellipse class="b" cx="2.5" cy="3" rx="2.5" ry="3" transform="translate(-0.001 79.482)"/><ellipse class="b" cx="2.5" cy="3" rx="2.5" ry="3" transform="translate(26.999 79.482)"/><circle class="b" cx="3" cy="3" r="3" transform="translate(52.999 79.482)"/><ellipse class="b" cx="2.5" cy="3" rx="2.5" ry="3" transform="translate(79.999 79.482)"/><circle class="b" cx="3" cy="3" r="3" transform="translate(105.999 79.482)"/><ellipse class="b" cx="2.5" cy="3" rx="2.5" ry="3" transform="translate(132.999 79.482)"/><ellipse class="b" cx="2.5" cy="3" rx="2.5" ry="3" transform="translate(159.999 79.482)"/><circle class="b" cx="3" cy="3" r="3" transform="translate(185.999 79.482)"/><ellipse class="b" cx="2.5" cy="3" rx="2.5" ry="3" transform="translate(212.999 79.482)"/><circle class="b" cx="3" cy="3" r="3" transform="translate(238.999 79.482)"/><ellipse class="b" cx="2.5" cy="3" rx="2.5" ry="3" transform="translate(265.999 79.482)"/><circle class="b" cx="2.5" cy="2.5" r="2.5" transform="translate(-0.001 106.482)"/><circle class="b" cx="2.5" cy="2.5" r="2.5" transform="translate(26.999 106.482)"/><ellipse class="b" cx="3" cy="2.5" rx="3" ry="2.5" transform="translate(52.999 106.482)"/><circle class="b" cx="2.5" cy="2.5" r="2.5" transform="translate(79.999 106.482)"/><ellipse class="b" cx="3" cy="2.5" rx="3" ry="2.5" transform="translate(105.999 106.482)"/><circle class="b" cx="2.5" cy="2.5" r="2.5" transform="translate(132.999 106.482)"/><circle class="b" cx="2.5" cy="2.5" r="2.5" transform="translate(159.999 106.482)"/><ellipse class="b" cx="3" cy="2.5" rx="3" ry="2.5" transform="translate(185.999 106.482)"/><circle class="b" cx="2.5" cy="2.5" r="2.5" transform="translate(212.999 106.482)"/><ellipse class="b" cx="3" cy="2.5" rx="3" ry="2.5" transform="translate(238.999 106.482)"/><circle class="b" cx="2.5" cy="2.5" r="2.5" transform="translate(265.999 106.482)"/><circle class="b" cx="2.5" cy="2.5" r="2.5" transform="translate(-0.001 133.482)"/><circle class="b" cx="2.5" cy="2.5" r="2.5" transform="translate(26.999 133.482)"/><ellipse class="b" cx="3" cy="2.5" rx="3" ry="2.5" transform="translate(52.999 133.482)"/><circle class="b" cx="2.5" cy="2.5" r="2.5" transform="translate(79.999 133.482)"/><ellipse class="b" cx="3" cy="2.5" rx="3" ry="2.5" transform="translate(105.999 133.482)"/><circle class="b" cx="2.5" cy="2.5" r="2.5" transform="translate(132.999 133.482)"/><circle class="b" cx="2.5" cy="2.5" r="2.5" transform="translate(159.999 133.482)"/><ellipse class="b" cx="3" cy="2.5" rx="3" ry="2.5" transform="translate(185.999 133.482)"/><circle class="b" cx="2.5" cy="2.5" r="2.5" transform="translate(212.999 133.482)"/><ellipse class="b" cx="3" cy="2.5" rx="3" ry="2.5" transform="translate(238.999 133.482)"/><circle class="b" cx="2.5" cy="2.5" r="2.5" transform="translate(265.999 133.482)"/><ellipse class="b" cx="2.5" cy="3" rx="2.5" ry="3" transform="translate(-0.001 159.482)"/><ellipse class="b" cx="2.5" cy="3" rx="2.5" ry="3" transform="translate(26.999 159.482)"/><circle class="b" cx="3" cy="3" r="3" transform="translate(52.999 159.482)"/><ellipse class="b" cx="2.5" cy="3" rx="2.5" ry="3" transform="translate(79.999 159.482)"/><circle class="b" cx="3" cy="3" r="3" transform="translate(105.999 159.482)"/><ellipse class="b" cx="2.5" cy="3" rx="2.5" ry="3" transform="translate(132.999 159.482)"/><ellipse class="b" cx="2.5" cy="3" rx="2.5" ry="3" transform="translate(159.999 159.482)"/><circle class="b" cx="3" cy="3" r="3" transform="translate(185.999 159.482)"/><ellipse class="b" cx="2.5" cy="3" rx="2.5" ry="3" transform="translate(212.999 159.482)"/><circle class="b" cx="3" cy="3" r="3" transform="translate(238.999 159.482)"/><ellipse class="b" cx="2.5" cy="3" rx="2.5" ry="3" transform="translate(265.999 159.482)"/><circle class="b" cx="2.5" cy="2.5" r="2.5" transform="translate(-0.001 186.482)"/><circle class="b" cx="2.5" cy="2.5" r="2.5" transform="translate(26.999 186.482)"/><ellipse class="b" cx="3" cy="2.5" rx="3" ry="2.5" transform="translate(52.999 186.482)"/><circle class="b" cx="2.5" cy="2.5" r="2.5" transform="translate(79.999 186.482)"/><ellipse class="b" cx="3" cy="2.5" rx="3" ry="2.5" transform="translate(105.999 186.482)"/><circle class="b" cx="2.5" cy="2.5" r="2.5" transform="translate(132.999 186.482)"/><circle class="b" cx="2.5" cy="2.5" r="2.5" transform="translate(159.999 186.482)"/><ellipse class="b" cx="3" cy="2.5" rx="3" ry="2.5" transform="translate(185.999 186.482)"/><circle class="b" cx="2.5" cy="2.5" r="2.5" transform="translate(212.999 186.482)"/><ellipse class="b" cx="3" cy="2.5" rx="3" ry="2.5" transform="translate(238.999 186.482)"/><circle class="b" cx="2.5" cy="2.5" r="2.5" transform="translate(265.999 186.482)"/><ellipse class="b" cx="2.5" cy="3" rx="2.5" ry="3" transform="translate(-0.001 212.482)"/><ellipse class="b" cx="2.5" cy="3" rx="2.5" ry="3" transform="translate(26.999 212.482)"/><circle class="b" cx="3" cy="3" r="3" transform="translate(52.999 212.482)"/><ellipse class="b" cx="2.5" cy="3" rx="2.5" ry="3" transform="translate(79.999 212.482)"/><circle class="b" cx="3" cy="3" r="3" transform="translate(105.999 212.482)"/><ellipse class="b" cx="2.5" cy="3" rx="2.5" ry="3" transform="translate(132.999 212.482)"/><ellipse class="b" cx="2.5" cy="3" rx="2.5" ry="3" transform="translate(159.999 212.482)"/><circle class="b" cx="3" cy="3" r="3" transform="translate(185.999 212.482)"/><ellipse class="b" cx="2.5" cy="3" rx="2.5" ry="3" transform="translate(212.999 212.482)"/><circle class="b" cx="3" cy="3" r="3" transform="translate(238.999 212.482)"/><ellipse class="b" cx="2.5" cy="3" rx="2.5" ry="3" transform="translate(265.999 212.482)"/><circle class="b" cx="2.5" cy="2.5" r="2.5" transform="translate(-0.001 239.482)"/><circle class="b" cx="2.5" cy="2.5" r="2.5" transform="translate(26.999 239.482)"/><ellipse class="b" cx="3" cy="2.5" rx="3" ry="2.5" transform="translate(52.999 239.482)"/><circle class="b" cx="2.5" cy="2.5" r="2.5" transform="translate(79.999 239.482)"/><ellipse class="b" cx="3" cy="2.5" rx="3" ry="2.5" transform="translate(105.999 239.482)"/><circle class="b" cx="2.5" cy="2.5" r="2.5" transform="translate(132.999 239.482)"/><circle class="b" cx="2.5" cy="2.5" r="2.5" transform="translate(159.999 239.482)"/><ellipse class="b" cx="3" cy="2.5" rx="3" ry="2.5" transform="translate(185.999 239.482)"/><circle class="b" cx="2.5" cy="2.5" r="2.5" transform="translate(212.999 239.482)"/><ellipse class="b" cx="3" cy="2.5" rx="3" ry="2.5" transform="translate(238.999 239.482)"/><circle class="b" cx="2.5" cy="2.5" r="2.5" transform="translate(265.999 239.482)"/><circle class="b" cx="2.5" cy="2.5" r="2.5" transform="translate(-0.001 266.482)"/><circle class="b" cx="2.5" cy="2.5" r="2.5" transform="translate(26.999 266.482)"/><ellipse class="b" cx="3" cy="2.5" rx="3" ry="2.5" transform="translate(52.999 266.482)"/><circle class="b" cx="2.5" cy="2.5" r="2.5" transform="translate(79.999 266.482)"/><ellipse class="b" cx="3" cy="2.5" rx="3" ry="2.5" transform="translate(105.999 266.482)"/><circle class="b" cx="2.5" cy="2.5" r="2.5" transform="translate(132.999 266.482)"/><circle class="b" cx="2.5" cy="2.5" r="2.5" transform="translate(159.999 266.482)"/><ellipse class="b" cx="3" cy="2.5" rx="3" ry="2.5" transform="translate(185.999 266.482)"/><circle class="b" cx="2.5" cy="2.5" r="2.5" transform="translate(212.999 266.482)"/><ellipse class="b" cx="3" cy="2.5" rx="3" ry="2.5" transform="translate(238.999 266.482)"/><circle class="b" cx="2.5" cy="2.5" r="2.5" transform="translate(265.999 266.482)"/></g></g></g></svg>