<svg xmlns="http://www.w3.org/2000/svg" xmlns:xlink="http://www.w3.org/1999/xlink" width="377" height="170" viewBox="0 0 377 170"><defs><style>.a{fill:#fcfcfc;}.b{font-size:18px;font-family:Poppins-Bold, Poppins;font-weight:700;letter-spacing:0.01em;opacity:0.7;}.c{fill:#ed4041;}.d{fill:#fff;}.e{opacity:0.3;}.f{filter:url(#a);}</style><filter id="a" x="0" y="0" width="377" height="170" filterUnits="userSpaceOnUse"><feOffset dx="18" dy="24" input="SourceAlpha"/><feGaussianBlur stdDeviation="16" result="b"/><feFlood flood-color="#707070" flood-opacity="0.2"/><feComposite operator="in" in2="b"/><feComposite in="SourceGraphic"/></filter></defs><g transform="translate(-813 -678)"><g class="f" transform="matrix(1, 0, 0, 1, 813, 678)"><rect class="a" width="281" height="74" rx="12" transform="translate(30 24)"/></g><text class="b" transform="translate(926 745)"><tspan x="0" y="0">Payroll Module</tspan></text><circle class="c" cx="24" cy="24" r="24" transform="translate(859 715)"/><g transform="translate(871.698 727.49)"><path class="d" d="M127.689,288.954l-2.582,3.376a2.731,2.731,0,0,1-2.169,1.072h-4.794a.683.683,0,1,1,0-1.365H122.3a1.618,1.618,0,0,0,1.624-1.624,1.593,1.593,0,0,0-1.593-1.562h-4.778a3.953,3.953,0,0,0-5.038-.367l-.514.367v7.736h11.871a4.1,4.1,0,0,0,3.445-1.881l2.664-4.144a1.4,1.4,0,0,0-2.292-1.609Z" transform="translate(-106.903 -274.653)"/><path class="d" d="M3.049,282H.683a.683.683,0,0,0-.683.683v9.1a.683.683,0,0,0,.683.683H3.049a.683.683,0,0,0,.683-.683v-9.1A.683.683,0,0,0,3.049,282Z" transform="translate(0 -269.167)"/><path class="d" d="M280.982,82.9a.678.678,0,0,0-.242.408.471.471,0,0,0,.117.456c.038.03.08.059.124.088Z" transform="translate(-267.953 -79.132)"/><path class="d" d="M177.689,11.377A5.689,5.689,0,1,0,172,5.689,5.695,5.695,0,0,0,177.689,11.377Zm-1.722-3.829a.455.455,0,0,1,.63-.132,1.378,1.378,0,0,0,.606.259V5.754a3.357,3.357,0,0,1-.686-.4,1.362,1.362,0,0,1-.45-1.341,1.533,1.533,0,0,1,1.051-1.2l.085-.024V2.5a.455.455,0,0,1,.91,0v.233a1.58,1.58,0,0,1,.905.468.455.455,0,0,1-.684.6.627.627,0,0,0-.222-.131v1.47l.241.087a1.629,1.629,0,0,1,1.107,1.843,1.851,1.851,0,0,1-1.348,1.475v.326a.455.455,0,0,1-.91,0V8.592a2.2,2.2,0,0,1-1.1-.413A.455.455,0,0,1,175.967,7.548Z" transform="translate(-164.173)"/><path class="d" d="M306.759,135.148a.7.7,0,0,0-.45-.809V135.8A.941.941,0,0,0,306.759,135.148Z" transform="translate(-292.369 -128.225)"/></g><path class="e" d="M12.1,9.657h0L9.185,6.738,12.1,3.82h0a.3.3,0,0,0,0-.425L10.725,2.016a.3.3,0,0,0-.425,0h0L7.381,4.934,4.462,2.016h0a.3.3,0,0,0-.425,0L2.659,3.395a.3.3,0,0,0,0,.425h0L5.577,6.738,2.659,9.657h0a.3.3,0,0,0,0,.425l1.379,1.379a.3.3,0,0,0,.425,0h0L7.381,8.542,10.3,11.461h0a.3.3,0,0,0,.425,0L12.1,10.082a.3.3,0,0,0,0-.425Z" transform="translate(1098.103 732.941)"/></g></svg>